<svg width="88" height="102" viewBox="0 0 88 102" fill="none" xmlns="http://www.w3.org/2000/svg">
<g clip-path="url(#clip0_76_1132)">
<path d="M46.1442 98.8251C48.5052 98.8251 50.4369 96.9198 50.4369 94.591C50.4369 92.2623 48.5052 90.3569 46.1442 90.3569C43.7833 90.3569 41.8516 92.2623 41.8516 94.591C41.8516 96.9198 43.7833 98.8251 46.1442 98.8251Z" fill="white"/>
<path d="M46.145 102.001C42.024 102.001 38.6328 98.6559 38.6328 94.5912C38.6328 90.5265 42.024 87.1815 46.145 87.1815C50.266 87.1815 53.6572 90.5265 53.6572 94.5912C53.6572 98.6559 50.266 102.001 46.145 102.001ZM46.145 93.5327C45.544 93.5327 45.0718 93.9984 45.0718 94.5912C45.0718 95.7768 47.2182 95.7768 47.2182 94.5912C47.2182 93.9984 46.746 93.5327 46.145 93.5327Z" fill="white"/>
<path d="M7.51143 35.3136C9.87241 35.3136 11.8041 33.4082 11.8041 31.0794C11.8041 28.7507 9.87241 26.8453 7.51143 26.8453C5.15046 26.8453 3.21875 28.7507 3.21875 31.0794C3.21875 33.4082 5.15046 35.3136 7.51143 35.3136Z" fill="white"/>
<path d="M7.51219 38.4893C3.39122 38.4893 0 35.1444 0 31.0796C0 27.0149 3.39122 23.6699 7.51219 23.6699C11.6332 23.6699 15.0244 27.0149 15.0244 31.0796C15.0244 35.1444 11.6332 38.4893 7.51219 38.4893ZM7.51219 30.0211C6.91122 30.0211 6.43902 30.4868 6.43902 31.0796C6.43902 32.2652 8.58536 32.2652 8.58536 31.0796C8.58536 30.4868 8.11317 30.0211 7.51219 30.0211Z" fill="white"/>
<path d="M7.51143 77.655C9.87241 77.655 11.8041 75.7496 11.8041 73.4209C11.8041 71.0921 9.87241 69.1868 7.51143 69.1868C5.15046 69.1868 3.21875 71.0921 3.21875 73.4209C3.21875 75.7496 5.15046 77.655 7.51143 77.655Z" fill="white"/>
<path d="M7.51219 80.8304C3.39122 80.8304 0 77.4854 0 73.4207C0 69.3559 3.39122 66.011 7.51219 66.011C11.6332 66.011 15.0244 69.3559 15.0244 73.4207C15.0244 77.4854 11.6332 80.8304 7.51219 80.8304ZM7.51219 72.3621C6.91122 72.3621 6.43902 72.8279 6.43902 73.4207C6.43902 74.6062 8.58536 74.6062 8.58536 73.4207C8.58536 72.8279 8.11317 72.3621 7.51219 72.3621Z" fill="white"/>
<path d="M46.1471 97.3844C45.1598 97.3844 44.2154 97.1304 43.3139 96.6646L7.25541 76.8913C5.45248 75.9175 4.29346 74.0121 4.29346 71.8951V32.5602C4.29346 30.4855 5.45248 28.5802 7.25541 27.564L43.3139 7.79069C45.0739 6.81684 47.1774 6.81684 48.9374 7.79069L84.9959 27.564C86.8418 28.5802 87.9579 30.4855 87.9579 32.5602V71.8951C87.9579 73.9698 86.7988 75.8751 84.953 76.8913L48.8944 96.6646C48.0788 97.1727 47.1344 97.3844 46.1471 97.3844ZM10.7325 71.5563L46.1471 90.9486L81.5618 71.5563V32.9413L46.1471 13.5491L10.7325 32.9413V71.5563Z" fill="white"/>
<path d="M46.1436 55.0438C45.1563 55.0438 44.2119 54.7897 43.3105 54.324L8.19631 35.1011C6.65095 34.2543 6.0929 32.3066 6.95144 30.7823C7.80997 29.258 9.78461 28.7076 11.33 29.5544L46.1436 48.6079L81.0861 29.4697C82.6314 28.6229 84.6061 29.1734 85.4646 30.6976C86.3231 32.2219 85.7651 34.1696 84.2197 35.0164L48.9768 54.324C48.0753 54.832 47.1309 55.0438 46.1436 55.0438Z" fill="white"/>
<path d="M46.1463 93.5331C44.3863 93.5331 42.9268 92.0935 42.9268 90.3575V52.2505C42.9268 50.5145 44.3863 49.075 46.1463 49.075C47.9063 49.075 49.3658 50.5145 49.3658 52.2505V90.3575C49.3658 92.0935 47.9063 93.5331 46.1463 93.5331Z" fill="white"/>
</g>
<defs>
<clipPath id="clip0_76_1132">
<rect width="88" height="102" fill="white"/>
</clipPath>
</defs>
</svg>
