<svg width="67" height="108" viewBox="0 0 67 108" fill="none" xmlns="http://www.w3.org/2000/svg">
<path d="M56.346 34.8886L16.9314 12.2632L14.5319 10.8933C13.2432 10.1421 12.1768 10.7607 12.1768 12.2632C12.1768 13.7657 13.2432 15.5333 14.5319 16.2845L16.9314 17.6544L56.346 40.2798V34.8886Z" fill="white"/>
<path d="M8.31589 14.3958C6.89761 13.6984 5.72387 14.2727 5.72387 15.6265V18.1289L5.57715 59.9312L10.7612 62.4336L10.9079 20.6313V18.1289C10.9079 16.7751 9.73417 15.0932 8.31589 14.3958Z" fill="white"/>
<path d="M61.4231 46.8899L56.4847 44.3077L56.3462 86.7885L61.2847 89.3707L61.4231 46.8899Z" fill="white"/>
<path d="M54.0614 90.7032L12.1768 66.7133V72.4296L54.0142 96.4196L54.0614 90.7032Z" fill="white"/>
<path d="M5.67767 70.1976V64.3035L10.8069 67.2266V73.1207L5.67767 70.1976ZM10.8069 64.3515L13.3716 65.8369L10.8069 64.3515ZM13.42 62.866L10.8553 61.3805L5.72606 58.4574L3.11303 56.9719C2.43558 56.5885 1.80651 56.5406 1.27423 56.8281C0.790336 57.0677 0.548389 57.6907 0.548389 58.4574L0.5 70.1976C0.5 70.9643 0.790337 71.8748 1.22584 72.6894C1.70974 73.504 2.38719 74.1749 3.06464 74.5582L13.3716 80.4523C14.049 80.8357 14.7265 80.9315 15.2104 80.644C15.6943 80.3565 15.9846 79.7814 15.9846 79.0147V76.0917V70.1976V67.2745C15.9846 66.5078 15.6943 65.5494 15.2104 64.7348C14.7749 63.9681 14.0974 63.2493 13.42 62.866Z" fill="white"/>
<path d="M6.94671 13.5543V7.66022L12.076 10.5833V16.4774L6.94671 13.5543ZM12.076 7.70814L14.6406 9.19363L12.076 7.70814ZM14.689 6.22265L12.1244 4.73715L6.9951 1.81409L4.38207 0.328585C3.70462 -0.0547683 3.07556 -0.102682 2.54327 0.184833C2.05938 0.424429 1.81743 1.04738 1.81743 1.81409L1.76904 13.5543C1.76904 14.321 2.05938 15.2315 2.49488 16.0461C2.97878 16.8607 3.65623 17.5316 4.33368 17.9149L14.6406 23.809C15.3181 24.1923 15.9955 24.2882 16.4794 24.0007C16.9633 23.7131 17.2537 23.1381 17.2537 22.3714V19.4483V13.5543V10.6312C17.2537 9.86451 16.9633 8.90612 16.4794 8.0915C16.0439 7.32479 15.3665 6.606 14.689 6.22265Z" fill="white"/>
<path d="M56.2666 39.8034V33.9731L61.3594 36.9119V42.7423L56.2666 39.8034ZM61.3594 34.0679L63.882 35.5373L61.3594 34.0679ZM63.9296 32.5984L53.7916 26.7681C53.1253 26.3889 52.5065 26.3415 51.983 26.5785C51.507 26.8629 51.269 27.4317 51.269 28.1901V31.0816V36.9119V39.8034C51.269 40.5618 51.5546 41.5099 51.983 42.2683C52.4589 43.1215 53.1253 43.7377 53.7916 44.1169L56.3142 45.5864L61.407 48.5253L63.9296 49.9947C64.596 50.3739 65.2147 50.4687 65.7383 50.1843C66.2142 49.9473 66.4522 49.3311 66.4522 48.5727L66.4998 37.0067C66.4998 36.2483 66.2618 35.3951 65.7859 34.5419C65.2147 33.6887 64.596 32.9776 63.9296 32.5984Z" fill="white"/>
<path d="M56.2666 97.4893V91.6524L61.3594 94.5945V100.431L56.2666 97.4893ZM61.407 91.6998L63.9296 93.1709L61.407 91.6998ZM63.9296 90.2762L61.407 88.8051L56.3142 85.8629L53.7916 84.4392C53.1253 84.0596 52.5065 83.9647 51.983 84.2494C51.507 84.4867 51.269 85.1036 51.269 85.8629V88.7576V94.5945V97.4893C51.269 98.2485 51.5546 99.1976 51.983 99.9569C52.4589 100.811 53.1253 101.428 53.7916 101.808L63.9296 107.645C64.596 108.024 65.2147 108.119 65.7383 107.834C66.2142 107.597 66.4522 106.98 66.4522 106.221L66.4998 94.642C66.4998 93.8827 66.2618 92.9811 65.7859 92.1743C65.2147 91.3202 64.596 90.6558 63.9296 90.2762Z" fill="white"/>
</svg>
