<svg width="91" height="90" viewBox="0 0 91 90" fill="none" xmlns="http://www.w3.org/2000/svg">
<g clip-path="url(#clip0_95_266)">
<path d="M79.25 16.875C80.7418 16.875 82.1726 17.4676 83.2275 18.5225C84.2824 19.5774 84.875 21.0082 84.875 22.5V67.5C84.875 68.9918 84.2824 70.4226 83.2275 71.4775C82.1726 72.5324 80.7418 73.125 79.25 73.125H11.75C10.2582 73.125 8.82742 72.5324 7.77252 71.4775C6.71763 70.4226 6.125 68.9918 6.125 67.5V22.5C6.125 21.0082 6.71763 19.5774 7.77252 18.5225C8.82742 17.4676 10.2582 16.875 11.75 16.875H79.25ZM11.75 11.25C8.76631 11.25 5.90483 12.4353 3.79505 14.545C1.68526 16.6548 0.5 19.5163 0.5 22.5L0.5 67.5C0.5 70.4837 1.68526 73.3452 3.79505 75.4549C5.90483 77.5647 8.76631 78.75 11.75 78.75H79.25C82.2337 78.75 85.0952 77.5647 87.2049 75.4549C89.3147 73.3452 90.5 70.4837 90.5 67.5V22.5C90.5 19.5163 89.3147 16.6548 87.2049 14.545C85.0952 12.4353 82.2337 11.25 79.25 11.25H11.75Z" fill="white"/>
<path d="M25.8575 61.875H33.8956L45.0894 28.1306H37.6813L30.1831 54.6075H29.8625L22.2969 28.1306H14.5625L25.8575 61.875ZM61.7844 28.1306H48.3125V61.875H54.9106V49.2919H60.8956L66.8019 61.875H74.2663L67.4937 48.2794C70.5594 47.0981 73.625 43.7569 73.625 38.8125C73.625 32.3606 69.2769 28.125 61.7844 28.125V28.1306ZM54.9106 44.2744V33.3731H60.8169C64.3606 33.3731 66.7231 35.325 66.7231 38.9362C66.7231 42.4969 64.4281 44.28 60.7213 44.28H54.9106V44.2744Z" fill="white"/>
</g>
<defs>
<clipPath id="clip0_95_266">
<rect width="90" height="90" fill="white" transform="translate(0.5)"/>
</clipPath>
</defs>
</svg>
