<svg width="97" height="96" viewBox="0 0 97 96" fill="none" xmlns="http://www.w3.org/2000/svg">
<path d="M55.8936 53.2677L38.5238 73.1189C35.3365 76.7617 29.6698 76.7617 26.4826 73.1189L9.11267 53.2677C6.47351 50.2517 6.47351 45.7477 9.11267 42.7317L26.4826 22.8804C29.6698 19.2378 35.3365 19.2378 38.5238 22.8804L55.8936 42.7317C58.5328 45.7477 58.5328 50.2517 55.8936 53.2677Z" stroke="white" stroke-width="6" stroke-linecap="round" stroke-linejoin="round"/>
<path d="M52.5 76L72.0376 53.2064C74.6052 50.2104 74.6052 45.7896 72.0376 42.7936L52.5 20" stroke="white" stroke-width="6" stroke-linecap="round" stroke-linejoin="round"/>
<path d="M68.5 76L88.0376 53.2064C90.6052 50.2104 90.6052 45.7896 88.0376 42.7936L68.5 20" stroke="white" stroke-width="6" stroke-linecap="round" stroke-linejoin="round"/>
</svg>
