<svg width="95" height="94" viewBox="0 0 95 94" fill="none" xmlns="http://www.w3.org/2000/svg">
<path d="M82.5034 29.4924C75.8059 16.1327 62.3952 7.83325 47.5002 7.83325C25.9037 7.83325 8.3335 25.4034 8.3335 46.9999C8.3335 68.5964 25.9037 86.1666 47.5002 86.1666C62.3952 86.1666 75.8059 77.8672 82.5034 64.5074C82.9522 63.6123 83.0411 62.5794 82.7519 61.6207C82.4628 60.6621 81.8174 59.8507 80.9485 59.3531L59.3167 46.9999L80.9446 34.6507C82.7502 33.6167 83.4356 31.3528 82.5034 29.4924V29.4924ZM49.4742 43.6003C48.8741 43.9421 48.3752 44.4368 48.0282 45.0339C47.6812 45.631 47.4984 46.3093 47.4984 46.9999C47.4984 47.6905 47.6812 48.3689 48.0282 48.966C48.3752 49.5631 48.8741 50.0577 49.4742 50.3996L73.6517 64.2058C70.8161 68.5542 66.9382 72.1245 62.3707 74.5919C57.8033 77.0593 52.6914 78.3454 47.5002 78.3333C30.2237 78.3333 16.1668 64.2763 16.1668 46.9999C16.1668 29.7235 30.2237 15.6666 47.5002 15.6666C52.691 15.6543 57.8025 16.94 62.3699 19.4067C66.9372 21.8733 70.8154 25.4427 73.6517 29.7901L49.4742 43.6003V43.6003Z" fill="white"/>
<path d="M45.5415 35.25C48.7862 35.25 51.4165 32.6197 51.4165 29.375C51.4165 26.1303 48.7862 23.5 45.5415 23.5C42.2968 23.5 39.6665 26.1303 39.6665 29.375C39.6665 32.6197 42.2968 35.25 45.5415 35.25Z" fill="white"/>
</svg>
