<svg width="1050" height="1793" viewBox="0 0 1050 1793" fill="none" xmlns="http://www.w3.org/2000/svg">
<path d="M900 1H1050V151H900V1Z" fill="#121212"/>
<path d="M900 151H1050V295H900V151Z" fill="#5C87DB"/>
<path d="M750 1H900V151H750V1Z" fill="#121212"/>
<path d="M750 151H900V301H750V151Z" fill="#121212"/>
<path d="M900 295H1050V445H900V295Z" fill="#262D3A"/>
<path d="M900 445H1050V595H900V445Z" fill="#5C87DB"/>
<path d="M900 595H1050V745H900V595Z" fill="#262D3A"/>
<path d="M750 595H900V745H750V595Z" fill="#5C87DB"/>
<path d="M600 595H750V745H600V595Z" fill="#121212"/>
<path d="M600 745H750V895H600V745Z" fill="#5C87DB"/>
<path d="M450 745H600V895H450V745Z" fill="#262D3A"/>
<path d="M300 595H450V745H300V595Z" fill="#121212"/>
<path d="M450 445H600V595H450V445Z" fill="#121212"/>
<path d="M300 295H450V445H300V295Z" fill="#121212"/>
<path d="M150 145H300V295H150V145Z" fill="#121212"/>
<path d="M0 -5H150V145H0V-5Z" fill="#121212"/>
<path d="M0 1H150V151H0V1Z" fill="#121212"/>
<path d="M450 595H600V745H450V595Z" fill="#5C87DB"/>
<path d="M600 1195H750V1345H600V1195Z" fill="#121212"/>
<path d="M900 1343H1050V1493H900V1343Z" fill="#5C87DB"/>
<path d="M750 1493H900V1643H750V1493Z" fill="#5C87DB"/>
<path d="M750 1343H900V1493H750V1343Z" fill="#262D3A"/>
<path d="M900 1643H1050V1793H900V1643Z" fill="#121212"/>
<path d="M600 1493H750V1643H600V1493Z" fill="#121212"/>
<path d="M750 1045H900V1195H750V1045Z" fill="#5C87DB"/>
<path d="M600 895H750V1045H600V895Z" fill="#262D3A"/>
<path d="M900 1195H1050V1345H900V1195Z" fill="#262D3A"/>
<path d="M900 745H1050V895H900V745Z" fill="#121212"/>
<path d="M450 1045H600V1195H450V1045Z" fill="#121212"/>
<path d="M300 895H450V1045H300V895Z" fill="#5C87DB"/>
<path d="M150 745H300V895H150V745Z" fill="#121212"/>
<path d="M0 895H150V1045H0V895Z" fill="#121212"/>
<path d="M450 895H600V1045H450V895Z" fill="#121212"/>
<path d="M450 151H600V295H450V151Z" fill="#121212"/>
<path d="M750 445H900V595H750V445Z" fill="#262D3A"/>
<path d="M450 1H600V151H450V1Z" fill="#121212"/>
<path d="M300 1H450V151H300V1Z" fill="#121212"/>
<path d="M150 1H300V151H150V1Z" fill="#121212"/>
<path d="M600 295H750V445H600V295Z" fill="#121212"/>
<path d="M750 295H900V445H750V295Z" fill="#5C87DB"/>
<path d="M600 1H750V151H600V1Z" fill="#121212"/>
<path d="M600 151H750V295H600V151Z" fill="#5C87DB"/>
</svg>
