<svg width="360" height="38" viewBox="0 0 360 38" fill="none" xmlns="http://www.w3.org/2000/svg">
<path d="M19.7865 10.9774V21.0448L16.6144 23.7065L8.55229 30.4722V10.9774L0 0.784302H11.2342L19.7865 10.9774Z" fill="white"/>
<path d="M6.19848 13.0273V32.4452L0 37.647V18.2292L6.19848 13.0273Z" fill="white"/>
<path d="M56.9302 0V13.029L55.166 11.2648H46.8728L45.1231 13.0145L42.231 15.9067V22.0018L46.8873 26.6581H55.1877L56.9374 24.9084V26.6581H59.8295V0H56.9302ZM56.9302 20.8233L53.9874 23.766H48.0803L45.1231 20.8088V17.1141L48.0658 14.1714H53.973L56.9302 17.1286V20.8233Z" fill="white"/>
<path d="M111.222 33.9824V24.9011L112.986 26.6653H121.287L123.037 24.9156L125.929 22.0235V15.9283L121.272 11.272H112.972L111.222 13.0217V11.272H108.33V33.9824H111.222ZM111.222 17.1069L114.165 14.1641H120.072L123.029 17.1213V20.816L120.087 23.7587H114.179L111.222 20.8015V17.1069V17.1069Z" fill="white"/>
<path d="M48.0658 14.1642L45.123 17.1069L48.0658 14.1642Z" fill="white"/>
<path d="M65.9751 11.272H63.083V26.6581H65.9751V11.272Z" fill="white"/>
<path d="M131.814 14.3738H128.922V26.6509H131.814V14.3738Z" fill="white"/>
<path d="M145.284 20.6858L151.163 26.658H147.077L143.245 22.732L143.195 22.6814L139.225 26.658H135.133L141.149 20.6424L133.456 12.9422H137.541L143.195 18.5963L145.957 15.8343H148.849V12.9422H152.941L145.241 20.6424L145.284 20.6858Z" fill="white"/>
<path d="M131.814 10.05H128.922V12.9421H131.814V10.05Z" fill="#5E66F2"/>
<path d="M73.8634 11.272V14.1641H65.9751L68.8672 11.272H73.8634Z" fill="white"/>
<path d="M86.4735 14.1641V26.6581H83.5813V20.7799H79.0624L76.1197 23.7298V26.6581H73.2275V22.5296L76.1197 19.6375L77.8622 17.8877H83.5813V14.1641H75.6931V11.272H83.5813L86.4735 14.1641Z" fill="white"/>
<path d="M100.796 11.272L98.9166 17.49L97.4055 22.4862L96.1474 26.6581H93.0094L88.3604 11.272H91.3826L94.5784 21.8499L95.8943 17.49L97.4055 12.4939L97.7742 11.272H100.796Z" fill="white"/>
<path d="M106.45 11.272L101.801 26.6581H98.6633L97.4053 22.4862L98.9164 17.4901L100.232 21.8499L103.428 11.272H106.45Z" fill="white"/>
<path d="M189.425 18.1033C188.627 17.0393 187.339 16.4093 185.757 16.4093C183.335 16.4093 181.501 17.9353 181.501 20.4553C181.501 22.9753 183.293 24.5293 185.757 24.5293C187.437 24.5293 188.627 23.8713 189.453 22.8213L188.795 22.4153C188.067 23.2973 187.129 23.8013 185.715 23.8013C183.685 23.8013 182.299 22.3873 182.299 20.4553C182.299 18.4673 183.629 17.1513 185.715 17.1513C187.087 17.1513 188.123 17.6413 188.781 18.4953L189.425 18.1033ZM195.597 20.1193V20.7633L197.795 20.8473V22.4713C197.053 23.3533 196.087 23.8013 194.589 23.8013C192.615 23.8013 191.159 22.3873 191.159 20.4553C191.159 18.4673 192.503 17.1373 194.589 17.1373C195.961 17.1373 196.997 17.6133 197.669 18.4533L198.299 18.0753C197.473 16.9973 196.325 16.4093 194.631 16.4093C192.209 16.4093 190.361 17.9353 190.361 20.4553C190.361 22.9753 192.125 24.5293 194.631 24.5293C196.129 24.5293 197.053 24.1093 197.823 23.3813L197.991 24.3333H198.537V20.1193H195.597ZM204.832 16.5913V24.3333H208.57C210.796 24.3333 212.714 22.9193 212.714 20.4553C212.714 17.9913 210.866 16.5913 208.57 16.5913H204.832ZM205.616 17.3053H208.472C210.6 17.3053 211.93 18.5093 211.93 20.4553C211.93 22.4013 210.6 23.6193 208.472 23.6193H205.616V17.3053ZM214.115 16.5913V24.3333H221.073V23.6193H214.899V20.7073H220.247V19.9933H214.899V17.3053H220.849V16.5913H214.115ZM222.199 16.5913L225.601 24.3333H227.533L231.005 16.5913H230.123L227.029 23.5773H226.105L223.039 16.5913H222.199ZM232.272 16.5913V24.3333H239.23V23.6193H233.056V20.7073H238.404V19.9933H233.056V17.3053H239.006V16.5913H232.272ZM240.776 16.5913V24.3333H247.58V23.6053H241.56V16.5913H240.776ZM249.073 20.4693C249.087 18.3413 250.613 17.1373 252.587 17.1373C254.561 17.1373 256.101 18.3413 256.101 20.4693C256.101 22.5973 254.561 23.8013 252.587 23.8013C250.613 23.8013 249.087 22.5973 249.073 20.4693ZM256.885 20.4693C256.885 18.0053 255.065 16.4093 252.587 16.4093C250.109 16.4093 248.289 18.0053 248.289 20.4693C248.289 22.9333 250.109 24.5293 252.587 24.5293C255.065 24.5293 256.885 22.9333 256.885 20.4693ZM258.289 16.5913V24.3333H259.073V22.3873H262.783C264.477 22.3873 265.863 21.2673 265.863 19.4893C265.863 17.7393 264.491 16.5913 262.783 16.5913H258.289ZM259.073 17.3193H262.783C264.155 17.3193 265.093 18.1593 265.093 19.4893C265.093 20.8333 264.155 21.6593 262.783 21.6593H259.073V17.3193ZM267.19 16.5913V24.3333H267.96V17.2633H268.24L271.936 24.3333H272.832L276.388 17.2633H276.668V24.3333H277.452V16.5913H275.898L272.44 23.5773H272.356L268.758 16.5913H267.19ZM279.125 16.5913V24.3333H286.083V23.6193H279.909V20.7073H285.257V19.9933H279.909V17.3053H285.859V16.5913H279.125ZM287.629 16.5913V24.3333H288.399V17.4733L294.503 24.3333H295.497V16.5913H294.727V23.4233L288.609 16.5913H287.629ZM296.752 16.5913V17.3193H300.322V24.3333H301.106V17.3193H304.676V16.5913H296.752ZM317.5 17.3053C316.352 16.5633 315.288 16.4093 313.944 16.4093C312.068 16.4093 310.486 17.0673 310.486 18.5653C310.486 19.8393 311.424 20.3433 312.824 20.4973L315.26 20.7633C316.436 20.8893 317.094 21.3093 317.094 22.2053C317.094 23.2833 316.03 23.8293 314.294 23.8293C312.782 23.8293 311.816 23.5913 310.71 22.8633L310.304 23.5073C311.438 24.2493 312.572 24.5293 314.07 24.5293C316.394 24.5293 317.864 23.8013 317.864 22.1773C317.864 20.9453 316.954 20.2313 315.442 20.0493L312.908 19.7413C311.9 19.6293 311.256 19.3773 311.256 18.5513C311.256 17.7953 311.844 17.1093 313.944 17.1093C315.26 17.1093 316.156 17.3613 317.122 17.8933L317.5 17.3053ZM318.709 16.5913V17.3193H322.279V24.3333H323.063V17.3193H326.633V16.5913H318.709ZM327.823 16.5913V20.5533C327.823 23.1153 329.321 24.5293 331.701 24.5293C334.067 24.5293 335.579 23.1153 335.579 20.5533V16.5913H334.795V20.5673C334.795 22.4853 333.829 23.8013 331.701 23.8013C329.559 23.8013 328.607 22.4853 328.607 20.5673V16.5913H327.823ZM337.19 16.5913V24.3333H340.928C343.154 24.3333 345.072 22.9193 345.072 20.4553C345.072 17.9913 343.224 16.5913 340.928 16.5913H337.19ZM337.974 17.3053H340.83C342.958 17.3053 344.288 18.5093 344.288 20.4553C344.288 22.4013 342.958 23.6193 340.83 23.6193H337.974V17.3053ZM346.473 16.5913V24.3333H347.257V16.5913H346.473ZM349.438 20.4693C349.452 18.3413 350.978 17.1373 352.952 17.1373C354.926 17.1373 356.466 18.3413 356.466 20.4693C356.466 22.5973 354.926 23.8013 352.952 23.8013C350.978 23.8013 349.452 22.5973 349.438 20.4693ZM357.25 20.4693C357.25 18.0053 355.43 16.4093 352.952 16.4093C350.474 16.4093 348.654 18.0053 348.654 20.4693C348.654 22.9333 350.474 24.5293 352.952 24.5293C355.43 24.5293 357.25 22.9333 357.25 20.4693Z" fill="white"/>
</svg>
